<mxfile host="Electron" agent="Mozilla/5.0 (Macintosh; Intel Mac OS X 10_15_7) AppleWebKit/537.36 (KHTML, like Gecko) draw.io/27.0.9 Chrome/134.0.6998.205 Electron/35.4.0 Safari/537.36" version="27.0.9">
  <diagram name="Page-1" id="hS-4q9--vTA08Vzclpd6">
    <mxGraphModel dx="1901" dy="1216" grid="1" gridSize="10" guides="1" tooltips="1" connect="1" arrows="1" fold="1" page="1" pageScale="1" pageWidth="850" pageHeight="1100" math="0" shadow="0">
      <root>
        <mxCell id="0" />
        <mxCell id="1" parent="0" />
        <mxCell id="hqh_UqcK2tmx4X992_RF-1" value="" style="rounded=0;whiteSpace=wrap;html=1;" vertex="1" parent="1">
          <mxGeometry x="90" y="190" width="1190" height="690" as="geometry" />
        </mxCell>
        <mxCell id="hqh_UqcK2tmx4X992_RF-2" value="" style="rounded=1;whiteSpace=wrap;html=1;dashed=1;" vertex="1" parent="1">
          <mxGeometry x="120" y="340" width="730" height="500" as="geometry" />
        </mxCell>
        <mxCell id="hqh_UqcK2tmx4X992_RF-3" value="" style="rounded=1;whiteSpace=wrap;html=1;dashed=1;" vertex="1" parent="1">
          <mxGeometry x="960" y="340" width="280" height="500" as="geometry" />
        </mxCell>
        <mxCell id="hqh_UqcK2tmx4X992_RF-4" value="CRM" style="rounded=0;whiteSpace=wrap;html=1;fillColor=light-dark(#398AED,#9BD0FF);strokeColor=#006EAF;fontColor=#000000;" vertex="1" parent="1">
          <mxGeometry x="330" y="320" width="310" height="40" as="geometry" />
        </mxCell>
        <mxCell id="hqh_UqcK2tmx4X992_RF-5" value="&lt;font style=&quot;color: rgb(0, 0, 0);&quot;&gt;ERP&lt;/font&gt;" style="rounded=0;whiteSpace=wrap;html=1;fillColor=light-dark(#398AED, #f5eea8);strokeColor=#006EAF;fontColor=#ffffff;" vertex="1" parent="1">
          <mxGeometry x="1025" y="320" width="150" height="40" as="geometry" />
        </mxCell>
        <mxCell id="hqh_UqcK2tmx4X992_RF-6" value="Customer Relationship Management" style="text;html=1;align=center;verticalAlign=middle;whiteSpace=wrap;rounded=0;" vertex="1" parent="1">
          <mxGeometry x="380" y="300" width="220" height="30" as="geometry" />
        </mxCell>
        <mxCell id="hqh_UqcK2tmx4X992_RF-7" value="Enterprise Resource Planning" style="text;html=1;align=center;verticalAlign=middle;whiteSpace=wrap;rounded=0;" vertex="1" parent="1">
          <mxGeometry x="990" y="300" width="220" height="30" as="geometry" />
        </mxCell>
        <mxCell id="hqh_UqcK2tmx4X992_RF-9" value="crm_sales_details" style="rounded=0;whiteSpace=wrap;html=1;fillColor=light-dark(#000000,#9BD0FF);fontColor=#000000;" vertex="1" parent="1">
          <mxGeometry x="230" y="525" width="160" height="25" as="geometry" />
        </mxCell>
        <mxCell id="hqh_UqcK2tmx4X992_RF-10" value="prd_key&lt;div&gt;cst_id&lt;/div&gt;" style="rounded=0;whiteSpace=wrap;html=1;align=left;fontSize=15;" vertex="1" parent="1">
          <mxGeometry x="230" y="550" width="160" height="60" as="geometry" />
        </mxCell>
        <mxCell id="hqh_UqcK2tmx4X992_RF-11" value="SALES" style="rounded=0;whiteSpace=wrap;html=1;fillColor=#E5CCFF;fontColor=#000000;" vertex="1" parent="1">
          <mxGeometry x="230" y="610" width="160" height="20" as="geometry" />
        </mxCell>
        <mxCell id="hqh_UqcK2tmx4X992_RF-12" value="crm_sales_details" style="rounded=0;whiteSpace=wrap;html=1;fillColor=light-dark(#000000,#9BD0FF);fontColor=#000000;" vertex="1" parent="1">
          <mxGeometry x="490" y="445" width="160" height="25" as="geometry" />
        </mxCell>
        <mxCell id="hqh_UqcK2tmx4X992_RF-13" value="prd_key" style="rounded=0;whiteSpace=wrap;html=1;align=left;fontSize=15;" vertex="1" parent="1">
          <mxGeometry x="490" y="470" width="160" height="60" as="geometry" />
        </mxCell>
        <mxCell id="hqh_UqcK2tmx4X992_RF-14" value="PRODUCT" style="rounded=0;whiteSpace=wrap;html=1;fillColor=#E5CCFF;fontColor=#000000;" vertex="1" parent="1">
          <mxGeometry x="490" y="530" width="160" height="20" as="geometry" />
        </mxCell>
        <mxCell id="hqh_UqcK2tmx4X992_RF-15" value="crm_sales_details" style="rounded=0;whiteSpace=wrap;html=1;fillColor=light-dark(#000000,#9BD0FF);fontColor=#000000;" vertex="1" parent="1">
          <mxGeometry x="490" y="590" width="160" height="25" as="geometry" />
        </mxCell>
        <mxCell id="hqh_UqcK2tmx4X992_RF-16" value="&lt;font&gt;cst_id&lt;/font&gt;&lt;div&gt;&lt;font&gt;cst_key&lt;/font&gt;&lt;/div&gt;" style="rounded=0;whiteSpace=wrap;html=1;align=left;fontSize=15;" vertex="1" parent="1">
          <mxGeometry x="490" y="615" width="160" height="60" as="geometry" />
        </mxCell>
        <mxCell id="hqh_UqcK2tmx4X992_RF-17" value="CUSTOMER" style="rounded=0;whiteSpace=wrap;html=1;fillColor=#E6FFCC;fontColor=#000000;" vertex="1" parent="1">
          <mxGeometry x="490" y="675" width="160" height="20" as="geometry" />
        </mxCell>
        <mxCell id="hqh_UqcK2tmx4X992_RF-18" value="crm_sales_details" style="rounded=0;whiteSpace=wrap;html=1;fillColor=light-dark(#000000,#9BD0FF);fontColor=#000000;" vertex="1" parent="1">
          <mxGeometry x="1020" y="405" width="160" height="25" as="geometry" />
        </mxCell>
        <mxCell id="hqh_UqcK2tmx4X992_RF-19" value="id" style="rounded=0;whiteSpace=wrap;html=1;align=left;fontSize=15;" vertex="1" parent="1">
          <mxGeometry x="1020" y="430" width="160" height="40" as="geometry" />
        </mxCell>
        <mxCell id="hqh_UqcK2tmx4X992_RF-20" value="PRODUCT" style="rounded=0;whiteSpace=wrap;html=1;fillColor=#E5CCFF;fontColor=#000000;" vertex="1" parent="1">
          <mxGeometry x="1020" y="470" width="160" height="20" as="geometry" />
        </mxCell>
        <mxCell id="hqh_UqcK2tmx4X992_RF-21" value="crm_sales_details" style="rounded=0;whiteSpace=wrap;html=1;fillColor=light-dark(#000000,#9BD0FF);fontColor=#000000;" vertex="1" parent="1">
          <mxGeometry x="1020" y="550" width="160" height="25" as="geometry" />
        </mxCell>
        <mxCell id="hqh_UqcK2tmx4X992_RF-22" value="cid" style="rounded=0;whiteSpace=wrap;html=1;align=left;fontSize=15;" vertex="1" parent="1">
          <mxGeometry x="1020" y="575" width="160" height="35" as="geometry" />
        </mxCell>
        <mxCell id="hqh_UqcK2tmx4X992_RF-23" value="CUSTOMER" style="rounded=0;whiteSpace=wrap;html=1;fillColor=#E6FFCC;fontColor=#000000;" vertex="1" parent="1">
          <mxGeometry x="1020" y="610" width="160" height="20" as="geometry" />
        </mxCell>
        <mxCell id="hqh_UqcK2tmx4X992_RF-24" value="crm_sales_details" style="rounded=0;whiteSpace=wrap;html=1;fillColor=light-dark(#000000,#9BD0FF);fontColor=#000000;" vertex="1" parent="1">
          <mxGeometry x="1020" y="690" width="160" height="25" as="geometry" />
        </mxCell>
        <mxCell id="hqh_UqcK2tmx4X992_RF-25" value="cid" style="rounded=0;whiteSpace=wrap;html=1;align=left;fontSize=15;" vertex="1" parent="1">
          <mxGeometry x="1020" y="715" width="160" height="35" as="geometry" />
        </mxCell>
        <mxCell id="hqh_UqcK2tmx4X992_RF-26" value="CUSTOMER" style="rounded=0;whiteSpace=wrap;html=1;fillColor=#E6FFCC;fontColor=#000000;" vertex="1" parent="1">
          <mxGeometry x="1020" y="750" width="160" height="20" as="geometry" />
        </mxCell>
        <mxCell id="hqh_UqcK2tmx4X992_RF-29" value="" style="endArrow=classic;html=1;rounded=0;exitX=0;exitY=0.5;exitDx=0;exitDy=0;entryX=0.726;entryY=0.64;entryDx=0;entryDy=0;entryPerimeter=0;" edge="1" parent="1" source="hqh_UqcK2tmx4X992_RF-25" target="hqh_UqcK2tmx4X992_RF-2">
          <mxGeometry width="50" height="50" relative="1" as="geometry">
            <mxPoint x="660" y="580" as="sourcePoint" />
            <mxPoint x="710" y="530" as="targetPoint" />
          </mxGeometry>
        </mxCell>
        <mxCell id="hqh_UqcK2tmx4X992_RF-30" value="" style="endArrow=classic;html=1;rounded=0;exitX=0;exitY=0.5;exitDx=0;exitDy=0;entryX=1;entryY=0.75;entryDx=0;entryDy=0;" edge="1" parent="1" source="hqh_UqcK2tmx4X992_RF-22" target="hqh_UqcK2tmx4X992_RF-16">
          <mxGeometry width="50" height="50" relative="1" as="geometry">
            <mxPoint x="1020" y="695" as="sourcePoint" />
            <mxPoint x="650" y="622" as="targetPoint" />
          </mxGeometry>
        </mxCell>
        <mxCell id="hqh_UqcK2tmx4X992_RF-31" value="" style="endArrow=classic;html=1;rounded=0;exitX=0;exitY=0.5;exitDx=0;exitDy=0;entryX=1;entryY=0.5;entryDx=0;entryDy=0;" edge="1" parent="1" source="hqh_UqcK2tmx4X992_RF-19" target="hqh_UqcK2tmx4X992_RF-13">
          <mxGeometry width="50" height="50" relative="1" as="geometry">
            <mxPoint x="1020" y="440" as="sourcePoint" />
            <mxPoint x="650" y="507" as="targetPoint" />
          </mxGeometry>
        </mxCell>
        <mxCell id="hqh_UqcK2tmx4X992_RF-32" value="" style="endArrow=classic;html=1;rounded=0;exitX=1;exitY=0.25;exitDx=0;exitDy=0;entryX=0;entryY=0.5;entryDx=0;entryDy=0;" edge="1" parent="1" source="hqh_UqcK2tmx4X992_RF-10" target="hqh_UqcK2tmx4X992_RF-13">
          <mxGeometry width="50" height="50" relative="1" as="geometry">
            <mxPoint x="660" y="580" as="sourcePoint" />
            <mxPoint x="710" y="530" as="targetPoint" />
          </mxGeometry>
        </mxCell>
        <mxCell id="hqh_UqcK2tmx4X992_RF-33" value="" style="endArrow=classic;html=1;rounded=0;exitX=1;exitY=0.75;exitDx=0;exitDy=0;entryX=0.013;entryY=0.403;entryDx=0;entryDy=0;entryPerimeter=0;" edge="1" parent="1" source="hqh_UqcK2tmx4X992_RF-10" target="hqh_UqcK2tmx4X992_RF-16">
          <mxGeometry width="50" height="50" relative="1" as="geometry">
            <mxPoint x="660" y="580" as="sourcePoint" />
            <mxPoint x="710" y="530" as="targetPoint" />
          </mxGeometry>
        </mxCell>
        <mxCell id="hqh_UqcK2tmx4X992_RF-34" value="Customer Information" style="text;html=1;align=center;verticalAlign=middle;whiteSpace=wrap;rounded=0;" vertex="1" parent="1">
          <mxGeometry x="490" y="565" width="160" height="30" as="geometry" />
        </mxCell>
        <mxCell id="hqh_UqcK2tmx4X992_RF-35" value="Current &amp;amp; History Product Information" style="text;html=1;align=center;verticalAlign=middle;whiteSpace=wrap;rounded=0;" vertex="1" parent="1">
          <mxGeometry x="465" y="420" width="210" height="30" as="geometry" />
        </mxCell>
        <mxCell id="hqh_UqcK2tmx4X992_RF-36" value="Transactional Records about Sales &amp;amp; Orders" style="text;html=1;align=center;verticalAlign=middle;whiteSpace=wrap;rounded=0;" vertex="1" parent="1">
          <mxGeometry x="217.5" y="495" width="185" height="30" as="geometry" />
        </mxCell>
        <mxCell id="hqh_UqcK2tmx4X992_RF-37" value="product categories" style="text;html=1;align=center;verticalAlign=middle;whiteSpace=wrap;rounded=0;" vertex="1" parent="1">
          <mxGeometry x="1020" y="380" width="160" height="30" as="geometry" />
        </mxCell>
        <mxCell id="hqh_UqcK2tmx4X992_RF-38" value="Extra Customer Information&lt;span style=&quot;color: rgba(0, 0, 0, 0); font-family: monospace; font-size: 0px; text-align: start; text-wrap-mode: nowrap;&quot;&gt;%3CmxGraphModel%3E%3Croot%3E%3CmxCell%20id%3D%220%22%2F%3E%3CmxCell%20id%3D%221%22%20parent%3D%220%22%2F%3E%3CmxCell%20id%3D%222%22%20value%3D%22product%20categories%22%20style%3D%22text%3Bhtml%3D1%3Balign%3Dcenter%3BverticalAlign%3Dmiddle%3BwhiteSpace%3Dwrap%3Brounded%3D0%3B%22%20vertex%3D%221%22%20parent%3D%221%22%3E%3CmxGeometry%20x%3D%221020%22%20y%3D%22380%22%20width%3D%22160%22%20height%3D%2230%22%20as%3D%22geometry%22%2F%3E%3C%2FmxCell%3E%3C%2Froot%3E%3C%2FmxGraphModel%3E&lt;/span&gt;" style="text;html=1;align=center;verticalAlign=middle;whiteSpace=wrap;rounded=0;" vertex="1" parent="1">
          <mxGeometry x="1020" y="525" width="160" height="30" as="geometry" />
        </mxCell>
        <mxCell id="hqh_UqcK2tmx4X992_RF-39" value="Location of Customers" style="text;html=1;align=center;verticalAlign=middle;whiteSpace=wrap;rounded=0;" vertex="1" parent="1">
          <mxGeometry x="1020" y="665" width="160" height="30" as="geometry" />
        </mxCell>
        <mxCell id="hqh_UqcK2tmx4X992_RF-40" value="&lt;font style=&quot;font-size: 35px;&quot;&gt;Data Integration Model&lt;/font&gt;" style="rounded=0;whiteSpace=wrap;html=1;strokeColor=none;" vertex="1" parent="1">
          <mxGeometry x="160" y="210" width="460" height="60" as="geometry" />
        </mxCell>
      </root>
    </mxGraphModel>
  </diagram>
</mxfile>
